# File created by Blade
# Date/Time:  Wed Apr 08 16:19:59 2015
# Frame Rate: 120.000 fps
#------------------------------------------------------
:FULLY-SPECIFIED
:DEGREES
3057
root 5.616920 36.705269 -4.000171 386.393728 -46.766224 -616.869354
Spine 25.742295 -23.940193 18.596233
Head -54.385148 -10.824969 22.994452
LeftShoulder -6.862867 20.938532 53.988050
LeftArm 125.938208 -58.269323 -93.564406
LeftForeArm -10.023914 -0.000000 14.244985
LeftHand 19.750500 -0.000000 95.319197
LeftHandThumb1 -26.253704 0.000000 33.147579
RightShoulder -18.435087 34.922252 -51.781366
RightArm 37.309557 41.568158 38.758129
RightForeArm -4.601837 -0.000000 31.141563
RightHand 24.205589 -0.000000 -80.568193
RightHandThumb1 -24.326973 -0.000000 -32.862282
LeftUpLeg 1.207517 15.147201 19.472106
LeftLeg 17.474720 -0.000000 -0.000000
LeftFoot 37.332386 25.443012 -12.145724
LeftToeBase 21.338692 -0.000000 -0.000000
RightUpLeg -102.944541 -34.183022 11.938821
RightLeg -6.233229 -0.000000 0.000000
RightFoot 23.798714 -21.487520 -8.269641
RightToeBase -0.035069 -0.000000 0.000000
3058
root 5.981609 36.546713 -4.013159 386.048810 -46.990141 -617.696818
Spine 25.668085 -23.871518 18.409570
Head -54.062521 -10.780651 22.655151
LeftShoulder -5.994044 20.796144 54.309102
LeftArm 124.281874 -58.227380 -92.287065
LeftForeArm -10.086080 -0.000000 14.423122
LeftHand 19.972736 -0.000000 94.562828
LeftHandThumb1 -26.253704 0.000000 33.147579
RightShoulder -17.787860 35.100110 -51.388289
RightArm 37.408452 40.926027 38.911122
RightForeArm -4.963181 -0.000000 31.166354
RightHand 24.497596 -0.000000 -79.911016
RightHandThumb1 -24.326973 -0.000000 -32.862282
LeftUpLeg 1.116062 15.378371 18.608590
LeftLeg 17.203150 -0.000000 -0.000000
LeftFoot 37.299141 25.101799 -12.171065
LeftToeBase 22.062798 -0.000000 -0.000000
RightUpLeg -102.944061 -33.952943 12.177831
RightLeg -6.150069 -0.000000 0.000000
RightFoot 23.758094 -20.787797 -8.000590
RightToeBase -1.026979 -0.000000 0.000000
3059
root 6.357997 36.379678 -4.019473 385.727793 -47.150461 -618.553869
Spine 25.490527 -23.803778 18.315797
Head -53.733518 -10.800871 22.401060
LeftShoulder -5.054639 20.477411 54.573826
LeftArm 122.565880 -58.095715 -90.903467
LeftForeArm -9.971482 -0.000000 14.558231
LeftHand 20.256801 -0.000000 93.672247
LeftHandThumb1 -26.253704 0.000000 33.147579
RightShoulder -16.938324 35.068943 -50.977918
RightArm 37.164853 40.419321 38.842671
RightForeArm -5.286591 0.000000 31.337128
RightHand 24.559515 -0.000000 -79.277108
RightHandThumb1 -24.326973 -0.000000 -32.862282
LeftUpLeg 1.012864 15.457925 17.781933
LeftLeg 16.908911 -0.000000 -0.000000
LeftFoot 37.428823 24.739239 -12.038195
LeftToeBase 22.038552 -0.000000 -0.000000
RightUpLeg -102.915217 -33.833978 12.300957
RightLeg -6.035730 -0.000000 0.000000
RightFoot 24.018449 -20.508944 -7.954033
RightToeBase -2.081286 -0.000000 0.000000
3060
root 6.746816 36.203090 -4.023059 385.426158 -47.259980 -619.406601
Spine 25.204085 -23.761096 18.246540
Head -53.440244 -10.788759 22.272376
LeftShoulder -4.163954 20.210371 54.720797
LeftArm 121.088499 -57.848953 -89.488039
LeftForeArm -9.875236 -0.000000 14.532009
LeftHand 20.357701 0.000000 92.626351
LeftHandThumb1 -26.253704 0.000000 33.147579
RightShoulder -15.972554 34.909508 -50.452959
RightArm 36.978791 39.990759 38.743165
RightForeArm -5.494456 0.000000 31.361658
RightHand 24.859793 0.000000 -78.676009
RightHandThumb1 -24.326973 -0.000000 -32.862282
LeftUpLeg 0.864117 15.490492 16.988962
LeftLeg 16.667397 -0.000000 -0.000000
LeftFoot 37.556981 24.506718 -12.083374
LeftToeBase 21.899358 -0.000000 -0.000000
RightUpLeg -102.920571 -33.798914 12.318052
RightLeg -5.813869 -0.000000 0.000000
RightFoot 24.591296 -20.453985 -8.272917
RightToeBase -2.241015 -0.000000 0.000000
3061
root 7.149469 36.014612 -4.019527 385.155315 -47.275247 -620.282185
Spine 24.732459 -23.734872 18.268199
Head -53.035759 -10.873378 22.302738
LeftShoulder -3.260806 20.030635 54.713129
LeftArm 119.829228 -57.578716 -87.795236
LeftForeArm -9.858710 0.000000 14.019381
LeftHand 20.626766 -0.000000 91.225770
LeftHandThumb1 -26.253704 0.000000 33.147579
RightShoulder -14.704608 34.530498 -49.819394
RightArm 36.479955 39.724895 38.337809
RightForeArm -5.264489 -0.000000 31.376648
RightHand 25.692383 -0.000000 -78.190733
RightHandThumb1 -24.326973 -0.000000 -32.862282
LeftUpLeg 0.702166 15.454168 16.274026
LeftLeg 16.421398 -0.000000 -0.000000
LeftFoot 37.723744 24.485691 -12.278348
LeftToeBase 21.758984 -0.000000 -0.000000
RightUpLeg -102.626594 -33.998818 11.802649
RightLeg -5.423467 -0.000000 0.000000
RightFoot 24.940495 -20.736843 -8.630412
RightToeBase -4.345316 -0.000000 0.000000
3062
root 7.569066 35.816861 -4.013553 384.903109 -47.234474 -621.158639
Spine 24.203655 -23.722747 18.316554
Head -52.807465 -10.884550 22.478620
LeftShoulder -2.694398 19.687625 54.461192
LeftArm 118.420203 -57.080384 -85.408533
LeftForeArm -10.025781 -0.000000 12.958223
LeftHand 20.950470 -0.000000 89.264582
LeftHandThumb1 -26.253704 0.000000 33.147579
RightShoulder -13.607610 34.125317 -49.422702
RightArm 35.826978 39.186487 37.935488
RightForeArm -5.448748 0.000000 31.354458
RightHand 25.330157 -0.000000 -77.952072
RightHandThumb1 -24.326973 -0.000000 -32.862282
LeftUpLeg 0.512699 15.426168 15.612686
LeftLeg 16.206179 -0.000000 -0.000000
LeftFoot 37.958903 24.586435 -12.454270
LeftToeBase 21.754051 -0.000000 -0.000000
RightUpLeg -101.892283 -34.422259 10.424416
RightLeg -4.371557 -0.000000 0.000000
RightFoot 24.527619 -20.709248 -9.187244
RightToeBase -14.639513 -0.000000 0.000000
3063
root 7.997440 35.619754 -4.009312 384.732304 -47.158793 -622.050298
Spine 23.470767 -23.744609 18.403033
Head -52.445774 -10.833609 22.605818
LeftShoulder -2.026347 19.605622 54.217671
LeftArm 117.017470 -56.813032 -82.774722
LeftForeArm -10.601666 0.000000 11.672657
LeftHand 21.350280 -0.000000 86.980619
LeftHandThumb1 -26.253704 0.000000 33.147579
RightShoulder -12.294086 33.789180 -49.035229
RightArm 35.066656 38.794331 37.611624
RightForeArm -5.027795 -0.000000 31.236544
RightHand 26.109674 -0.000000 -77.447488
RightHandThumb1 -24.326973 -0.000000 -32.862282
LeftUpLeg 0.231321 15.427203 14.987569
LeftLeg 16.030704 -0.000000 -0.000000
LeftFoot 38.186412 24.726752 -12.599089
LeftToeBase 21.359061 -0.000000 -0.000000
RightUpLeg -100.877205 -34.859141 8.520221
RightLeg -2.707867 -0.000000 0.000000
RightFoot 23.425623 -21.289603 -8.819035
RightToeBase -24.179340 -0.000000 0.000000
3064
root 8.426831 35.423224 -4.010061 384.730770 -47.084166 -623.057559
Spine 22.605742 -23.663544 18.569012
Head -52.073366 -10.805185 22.865667
LeftShoulder -1.378428 19.527232 54.095937
LeftArm 115.436088 -56.502338 -79.940005
LeftForeArm -11.316403 -0.000000 10.309650
LeftHand 21.814572 0.000000 84.247199
LeftHandThumb1 -26.253704 0.000000 33.147579
RightShoulder -10.872216 33.366813 -48.497998
RightArm 34.409477 38.389252 37.190505
RightForeArm -4.940518 0.000000 30.919909
RightHand 26.261425 -0.000000 -77.038319
RightHandThumb1 -24.326973 -0.000000 -32.862282
LeftUpLeg -0.124672 15.448532 14.436530
LeftLeg 15.855245 -0.000000 -0.000000
LeftFoot 38.378543 24.795287 -12.709360
LeftToeBase 21.535901 -0.000000 -0.000000
RightUpLeg -99.823596 -35.155718 6.602638
RightLeg -0.427109 -0.000000 0.000000
RightFoot 20.111421 -22.647078 -7.359068
RightToeBase -25.933903 -0.000000 0.000000
